<svg width="40" height="40" viewBox="0 0 40 40" fill="none" xmlns="http://www.w3.org/2000/svg">
<path fill-rule="evenodd" clip-rule="evenodd" d="M17.75 19.25C16.5074 19.25 15.5 20.2574 15.5 21.5C15.5 22.7426 16.5074 23.75 17.75 23.75C18.9926 23.75 20 22.7426 20 21.5C20 20.2574 18.9926 19.25 17.75 19.25ZM14 21.5C14 19.4289 15.6789 17.75 17.75 17.75C19.8211 17.75 21.5 19.4289 21.5 21.5C21.5 23.5711 19.8211 25.25 17.75 25.25C15.6789 25.25 14 23.5711 14 21.5Z" fill="#797B7E"/>
<path fill-rule="evenodd" clip-rule="evenodd" d="M10.6893 12.1893C10.9706 11.908 11.3522 11.75 11.75 11.75H28.25C28.6478 11.75 29.0294 11.908 29.3107 12.1893C29.592 12.4706 29.75 12.8522 29.75 13.25V26.75C29.75 27.1478 29.592 27.5294 29.3107 27.8107C29.0294 28.092 28.6478 28.25 28.25 28.25H22.4938C22.204 28.25 21.9402 28.0831 21.8161 27.8213C21.4512 27.0518 20.8754 26.4016 20.1556 25.9463C19.4359 25.491 18.6017 25.25 17.75 25.25C16.8983 25.25 16.0641 25.491 15.3444 25.9463C14.6246 26.4016 14.0488 27.0518 13.6839 27.8213C13.5598 28.0831 13.296 28.25 13.0063 28.25H11.75C11.3522 28.25 10.9706 28.092 10.6893 27.8107C10.408 27.5294 10.25 27.1478 10.25 26.75V13.25C10.25 12.8522 10.408 12.4706 10.6893 12.1893ZM28.25 13.25L11.75 13.25L11.75 26.75H12.5534C13.0378 25.9108 13.7196 25.1992 14.5425 24.6786C15.5022 24.0716 16.6144 23.75 17.75 23.75C18.8856 23.75 19.9978 24.0716 20.9575 24.6786C21.7804 25.1992 22.4622 25.9108 22.9466 26.75H28.25V13.25Z" fill="#797B7E"/>
<path fill-rule="evenodd" clip-rule="evenodd" d="M13.25 15.5C13.25 15.0858 13.5858 14.75 14 14.75H26C26.4142 14.75 26.75 15.0858 26.75 15.5V24.5C26.75 24.9142 26.4142 25.25 26 25.25H24.5C24.0858 25.25 23.75 24.9142 23.75 24.5C23.75 24.0858 24.0858 23.75 24.5 23.75H25.25V16.25H14.75V17C14.75 17.4142 14.4142 17.75 14 17.75C13.5858 17.75 13.25 17.4142 13.25 17V15.5Z" fill="#797B7E"/>
</svg>
