<svg width="26" height="26" viewBox="0 0 26 26" fill="none" xmlns="http://www.w3.org/2000/svg">
<path d="M25.5691 9.03297L13.3816 2.53297C13.2641 2.47038 13.1329 2.43764 12.9997 2.43764C12.8666 2.43764 12.7354 2.47038 12.6179 2.53297L0.430371 9.03297C0.300376 9.10225 0.191659 9.20557 0.115852 9.33187C0.0400454 9.45817 0 9.6027 0 9.75C0 9.89731 0.0400454 10.0418 0.115852 10.1681C0.191659 10.2944 0.300376 10.3978 0.430371 10.467L3.24975 11.9712V16.8888C3.2489 17.2879 3.39578 17.6732 3.66209 17.9705C4.99256 19.4523 7.97342 21.9375 12.9997 21.9375C14.6663 21.9513 16.3205 21.6494 17.8747 21.0478V24.375C17.8747 24.5905 17.9603 24.7972 18.1127 24.9495C18.2651 25.1019 18.4718 25.1875 18.6872 25.1875C18.9027 25.1875 19.1094 25.1019 19.2618 24.9495C19.4141 24.7972 19.4997 24.5905 19.4997 24.375V20.2627C20.5593 19.6511 21.5167 18.8777 22.3374 17.9705C22.6037 17.6732 22.7506 17.2879 22.7497 16.8888V11.9712L25.5691 10.467C25.6991 10.3978 25.8078 10.2944 25.8836 10.1681C25.9594 10.0418 25.9995 9.89731 25.9995 9.75C25.9995 9.6027 25.9594 9.45817 25.8836 9.33187C25.8078 9.20557 25.6991 9.10225 25.5691 9.03297ZM12.9997 20.3125C8.60514 20.3125 6.02037 18.1655 4.87475 16.8888V12.8375L12.6179 16.967C12.7354 17.0296 12.8666 17.0624 12.9997 17.0624C13.1329 17.0624 13.2641 17.0296 13.3816 16.967L17.8747 14.5712V19.2776C16.5951 19.8748 14.9822 20.3125 12.9997 20.3125ZM21.1247 16.8848C20.6377 17.4252 20.0928 17.9106 19.4997 18.332V13.7038L21.1247 12.8375V16.8848ZM19.0935 12.0798L19.0712 12.0666L13.3837 9.03297C13.1939 8.93605 12.9737 8.91755 12.7704 8.98145C12.5671 9.04535 12.3971 9.18655 12.2969 9.37462C12.1968 9.56268 12.1745 9.78257 12.2349 9.98691C12.2953 10.1912 12.4336 10.3637 12.6199 10.467L17.3669 13L12.9997 15.3288L2.53881 9.75L12.9997 4.17117L23.4607 9.75L19.0935 12.0798Z" fill="#2E3135"/>
</svg>
