<svg width="24" height="24" viewBox="0 0 24 24" fill="none" xmlns="http://www.w3.org/2000/svg">
<path d="M22.1766 14.0081L18.1922 11.25L22.1766 8.49187C22.2763 8.42287 22.3579 8.33069 22.4142 8.22325C22.4706 8.11581 22.5 7.99631 22.5 7.87499C22.5 7.75368 22.4706 7.63417 22.4142 7.52673C22.3579 7.41929 22.2763 7.32712 22.1766 7.25812L17.3016 3.88312C17.1762 3.79643 17.0274 3.75 16.875 3.75C16.7226 3.75 16.5738 3.79643 16.4484 3.88312L12 6.9628L7.55155 3.88312C7.42619 3.79643 7.2774 3.75 7.12499 3.75C6.97258 3.75 6.82378 3.79643 6.69843 3.88312L1.82343 7.25812C1.72365 7.32712 1.64209 7.41929 1.58576 7.52673C1.52943 7.63417 1.5 7.75368 1.5 7.87499C1.5 7.99631 1.52943 8.11581 1.58576 8.22325C1.64209 8.33069 1.72365 8.42287 1.82343 8.49187L5.81249 11.25L1.82811 14.0081C1.72833 14.0771 1.64678 14.1693 1.59045 14.2767C1.53412 14.3842 1.50469 14.5037 1.50469 14.625C1.50469 14.7463 1.53412 14.8658 1.59045 14.9733C1.64678 15.0807 1.72833 15.1729 1.82811 15.2419L6.70311 18.6169C6.82847 18.7036 6.97727 18.75 7.12968 18.75C7.28209 18.75 7.43088 18.7036 7.55624 18.6169L12 15.5372L16.4484 18.6169C16.5738 18.7036 16.7226 18.75 16.875 18.75C17.0274 18.75 17.1762 18.7036 17.3016 18.6169L22.1766 15.2419C22.2763 15.1729 22.3579 15.0807 22.4142 14.9733C22.4706 14.8658 22.5 14.7463 22.5 14.625C22.5 14.5037 22.4706 14.3842 22.4142 14.2767C22.3579 14.1693 22.2763 14.0771 22.1766 14.0081ZM12 13.7128L8.44218 11.25L12.0047 8.78718L15.5625 11.25L12 13.7128ZM16.875 5.41218L20.4375 7.87499L16.875 10.3378L13.3172 7.87499L16.875 5.41218ZM7.12499 5.41218L10.6875 7.87499L7.12499 10.3378L3.56718 7.87499L7.12499 5.41218ZM7.12499 17.0878L3.56718 14.625L7.12968 12.1622L10.6875 14.625L7.12499 17.0878ZM16.875 17.0878L13.3172 14.625L16.875 12.1622L20.4375 14.625L16.875 17.0878ZM14.8566 19.3978C14.97 19.5611 15.0139 19.7627 14.9788 19.9583C14.9436 20.154 14.8322 20.3277 14.6691 20.4412L12.4294 21.9919C12.304 22.0786 12.1552 22.125 12.0028 22.125C11.8504 22.125 11.7016 22.0786 11.5762 21.9919L9.33374 20.4375C9.17104 20.324 9.05994 20.1507 9.02475 19.9554C8.98956 19.7602 9.03315 19.559 9.14598 19.3958C9.2588 19.2327 9.43168 19.1208 9.62676 19.0848C9.82184 19.0488 10.0232 19.0916 10.1869 19.2037L12 20.4628L13.8131 19.2075C13.9767 19.0944 14.1786 19.0509 14.3742 19.0865C14.5699 19.1222 14.7434 19.2342 14.8566 19.3978Z" fill="white"/>
</svg>
