<svg width="24" height="24" viewBox="0 0 24 24" fill="none" xmlns="http://www.w3.org/2000/svg">
<path d="M18.3639 9C18.3704 8.87719 18.3751 8.75344 18.3751 8.625C18.3751 6.93425 17.7035 5.31274 16.5079 4.11719C15.3124 2.92165 13.6909 2.25 12.0001 2.25C10.3094 2.25 8.68785 2.92165 7.49231 4.11719C6.29676 5.31274 5.62511 6.93425 5.62511 8.625C5.62511 8.74969 5.62511 8.87344 5.63636 9C4.86707 9.39368 4.18584 9.93966 3.63409 10.6048C3.08233 11.2699 2.67155 12.0402 2.42672 12.869C2.18189 13.6977 2.10812 14.5676 2.20988 15.4258C2.31165 16.2839 2.58683 17.1125 3.0187 17.861C3.45057 18.6095 4.03011 19.2624 4.72212 19.78C5.41413 20.2976 6.20415 20.6691 7.04418 20.872C7.88422 21.0748 8.75672 21.1047 9.60868 20.9599C10.4606 20.8152 11.2743 20.4987 12.0001 20.0297C12.726 20.4987 13.5396 20.8152 14.3915 20.9599C15.2435 21.1047 16.116 21.0748 16.956 20.872C17.7961 20.6691 18.5861 20.2976 19.2781 19.78C19.9701 19.2624 20.5497 18.6095 20.9815 17.861C21.4134 17.1125 21.6886 16.2839 21.7903 15.4258C21.8921 14.5676 21.8183 13.6977 21.5735 12.869C21.3287 12.0402 20.9179 11.2699 20.3661 10.6048C19.8144 9.93966 19.1332 9.39368 18.3639 9ZM12.0001 18.1378C11.0897 17.268 10.552 16.079 10.5001 14.8209C11.4827 15.0597 12.5082 15.0597 13.4907 14.8209C13.4413 16.0777 12.9071 17.2665 12.0001 18.1378ZM12.0001 13.5C11.5538 13.4999 11.1097 13.4383 10.6801 13.3172C10.9152 12.4775 11.371 11.7161 12.0001 11.1122C12.6292 11.7161 13.085 12.4775 13.3201 13.3172C12.8906 13.4383 12.4464 13.4999 12.0001 13.5ZM9.30292 12.6834C8.33052 12.036 7.62188 11.062 7.30511 9.9375C8.45359 9.61341 9.68114 9.72285 10.7542 10.245C10.0938 10.9388 9.59783 11.7721 9.30292 12.6834ZM13.246 10.2403C14.3197 9.71973 15.5472 9.61196 16.6951 9.9375C16.3793 11.0637 15.6706 12.0395 14.6973 12.6881C14.4037 11.7735 13.9076 10.9368 13.246 10.2403ZM12.0001 3.75C13.2594 3.75038 14.4698 4.23747 15.3783 5.10947C16.2868 5.98146 16.8231 7.17087 16.8751 8.42906C16.0509 8.22859 15.1948 8.19531 14.3575 8.33122C13.5202 8.46712 12.7186 8.76943 12.0001 9.22031C11.2822 8.77006 10.4814 8.46808 9.64497 8.33219C8.80851 8.1963 7.95332 8.22924 7.1298 8.42906C7.18177 7.17167 7.71742 5.98296 8.62493 5.11109C9.53244 4.23922 10.7416 3.75159 12.0001 3.75ZM3.75011 14.625C3.75051 13.8214 3.94955 13.0304 4.3295 12.3224C4.70946 11.6143 5.25855 11.0112 5.92792 10.5666C6.43931 12.1477 7.54486 13.4684 9.01136 14.25C9.0048 14.3728 9.00011 14.4966 9.00011 14.625C8.99942 16.2577 9.62759 17.8279 10.7542 19.0097C10.011 19.3705 9.18841 19.5365 8.36352 19.4922C7.53863 19.4478 6.73853 19.1946 6.03833 18.7563C5.33814 18.3179 4.76082 17.7089 4.36056 16.9862C3.96031 16.2636 3.75025 15.4511 3.75011 14.625ZM15.3751 19.5C14.6373 19.5009 13.9091 19.3332 13.246 19.0097C14.3726 17.8279 15.0008 16.2577 15.0001 14.625C15.0001 14.5003 14.9954 14.3766 14.9889 14.25C16.4561 13.4675 17.5618 12.1454 18.0723 10.5628C18.945 11.1419 19.6081 11.9866 19.9632 12.9719C20.3184 13.9573 20.3468 15.0308 20.0442 16.0335C19.7416 17.0362 19.124 17.9148 18.2831 18.5392C17.4422 19.1635 16.4225 19.5004 15.3751 19.5Z" fill="#FFAE41"/>
</svg>
