<svg width="18" height="22" viewBox="0 0 18 22" fill="none" xmlns="http://www.w3.org/2000/svg">
<path d="M16.5057 16.25H11.2501C11.0512 16.25 10.8604 16.329 10.7198 16.4697C10.5791 16.6103 10.5001 16.8011 10.5001 17V18.125C10.5001 19.0207 10.8559 19.8798 11.4893 20.5131C12.1227 21.1465 12.9817 21.5023 13.8774 21.5023C14.7732 21.5023 15.6322 21.1465 16.2656 20.5131C16.8989 19.8798 17.2548 19.0207 17.2548 18.125V17C17.2548 16.8012 17.1759 16.6106 17.0354 16.47C16.895 16.3294 16.7045 16.2502 16.5057 16.25ZM15.7557 18.125C15.7557 18.6223 15.5582 19.0992 15.2065 19.4508C14.8549 19.8025 14.378 20 13.8807 20C13.3834 20 12.9065 19.8025 12.5549 19.4508C12.2032 19.0992 12.0057 18.6223 12.0057 18.125V17.75H15.7557V18.125ZM6.75008 14H1.50008C1.30117 14 1.1104 14.079 0.969751 14.2197C0.829099 14.3603 0.750081 14.5511 0.750081 14.75V15.875C0.750081 16.7701 1.10566 17.6285 1.7386 18.2615C2.37153 18.8944 3.22998 19.25 4.12508 19.25C5.02019 19.25 5.87863 18.8944 6.51157 18.2615C7.1445 17.6285 7.50008 16.7701 7.50008 15.875V14.75C7.50008 14.5511 7.42106 14.3603 7.28041 14.2197C7.13976 14.079 6.94899 14 6.75008 14ZM6.00008 15.875C6.00008 16.3723 5.80254 16.8492 5.45091 17.2008C5.09928 17.5525 4.62236 17.75 4.12508 17.75C3.6278 17.75 3.15089 17.5525 2.79926 17.2008C2.44763 16.8492 2.25008 16.3723 2.25008 15.875V15.5H6.00008V15.875ZM4.12508 0.5C3.03383 0.5 1.97539 1.46656 1.14383 3.21875C-0.162106 5.97312 -0.596169 10.0625 1.17102 12.2187C1.24148 12.3048 1.33019 12.374 1.43072 12.4215C1.53125 12.469 1.64108 12.4936 1.75227 12.4934H6.49133C6.60252 12.4936 6.71235 12.469 6.81288 12.4215C6.91341 12.374 7.00212 12.3048 7.07258 12.2187C8.83977 10.0625 8.40571 5.97031 7.09977 3.21875C6.26727 1.46656 5.20977 0.5 4.12508 0.5ZM6.10789 11H2.13571C1.06696 9.30312 1.45977 6.05937 2.50039 3.86469C3.10696 2.58312 3.76602 2 4.12508 2C4.48414 2 5.13946 2.58312 5.74696 3.86469C6.78383 6.05937 7.17664 9.30312 6.10789 11ZM11.5088 14.75H16.2479C16.3591 14.7502 16.4689 14.7256 16.5694 14.6781C16.67 14.6306 16.7587 14.5613 16.8291 14.4753C18.5963 12.3191 18.1623 8.22687 16.8563 5.47531C16.0248 3.71656 14.9663 2.75 13.8751 2.75C12.7838 2.75 11.7291 3.71656 10.8966 5.46875C9.59071 8.22312 9.15664 12.3125 10.9238 14.4687C10.9943 14.5562 11.0833 14.6268 11.1845 14.6755C11.2858 14.7241 11.3965 14.7496 11.5088 14.75ZM12.2588 6.11469C12.8645 4.83312 13.5235 4.25 13.8751 4.25C14.2266 4.25 14.8895 4.83312 15.496 6.11469C16.5366 8.30937 16.9295 11.5522 15.8616 13.25H11.8923C10.8235 11.5531 11.2163 8.30937 12.257 6.11469H12.2588Z" fill="#FF414B"/>
</svg>
