<svg width="19" height="19" viewBox="0 0 19 19" fill="none" xmlns="http://www.w3.org/2000/svg">
<path d="M18.7172 16.2391L15.6056 1.44531C15.5654 1.25185 15.4873 1.06824 15.3759 0.905047C15.2645 0.741849 15.1219 0.602274 14.9564 0.494338C14.7909 0.386402 14.6057 0.312234 14.4114 0.276094C14.2171 0.239954 14.0176 0.242555 13.8244 0.283746L9.43594 1.22687C9.04776 1.31187 8.70885 1.54668 8.49291 1.88026C8.27696 2.21383 8.20146 2.61917 8.28281 3.00812L11.3944 17.8019C11.4637 18.1394 11.6471 18.4427 11.9138 18.6609C12.1805 18.8791 12.5142 18.9989 12.8588 19C12.9653 18.9999 13.0715 18.9885 13.1756 18.9662L17.5641 18.0231C17.9527 17.9379 18.292 17.7026 18.5079 17.3685C18.7239 17.0343 18.7991 16.6284 18.7172 16.2391ZM9.75 2.70156C9.75 2.69593 9.75 2.69312 9.75 2.69312L14.1375 1.75562L14.4497 3.24343L10.0622 4.1875L9.75 2.70156ZM10.3706 5.65187L14.76 4.70968L15.0731 6.20031L10.6875 7.14343L10.3706 5.65187ZM10.9931 8.61156L15.3825 7.66843L16.6294 13.5972L12.24 14.5403L10.9931 8.61156ZM17.25 16.5569L12.8625 17.4944L12.5503 16.0066L16.9378 15.0625L17.25 16.5484C17.25 16.5541 17.25 16.5569 17.25 16.5569ZM6.75 0.999996H2.25C1.85218 0.999996 1.47064 1.15803 1.18934 1.43934C0.908035 1.72064 0.75 2.10217 0.75 2.5V17.5C0.75 17.8978 0.908035 18.2794 1.18934 18.5607C1.47064 18.842 1.85218 19 2.25 19H6.75C7.14782 19 7.52936 18.842 7.81066 18.5607C8.09196 18.2794 8.25 17.8978 8.25 17.5V2.5C8.25 2.10217 8.09196 1.72064 7.81066 1.43934C7.52936 1.15803 7.14782 0.999996 6.75 0.999996ZM2.25 2.5H6.75V4H2.25V2.5ZM2.25 5.5H6.75V14.5H2.25V5.5ZM6.75 17.5H2.25V16H6.75V17.5Z" fill="#5655D7"/>
</svg>
